#!OML:ASF F:\twosubjects\two\wednesday\Session 1\rory1.ASF
:FULLY-SPECIFIED
:DEGREES
763
root 8.51663 18.7479 9.715 -177.062 2.3507 177.507
lowerback 0.652372 0.748207 -3.2328
upperback 0.575932 1.02163 -1.13533
thorax 0.189699 0.518381 0.643008
lowerneck -11.1891 -5.07826 -5.91189
upperneck 16.7909 -8.55884 10.2407
head 7.71057 -3.85848 3.42501
rclavicle 2.72087e-015 8.34896e-015
rhumerus 3.14778 1.70011 -43.3633
rradius 113.108
rwrist 14.1993
rhand -27.8586 50.3511
rfingers 7.12502
rthumb -1.24935 20.375
lclavicle 2.72087e-015 8.34896e-015
lhumerus 11.4705 -5.11663 41.6387
lradius 112.5
lwrist -15.3227
lhand -30.6166 13.7028
lfingers 7.12502
lthumb -3.91288 43.6466
rfemur -3.58927 11.4956 12.2312
rtibia 18.1493
rfoot -10.1951 -16.6542
rtoes 4.39291
lfemur -3.10048 -3.55317 -19.4787
ltibia 16.3023
lfoot -13.6016 7.32147
ltoes -13.6047
764
root 8.5169 18.7525 9.71439 -176.987 2.2523 177.706
lowerback 0.703965 0.738632 -2.95008
upperback 0.487872 1.00336 -1.15856
thorax 0.0761488 0.511269 0.459792
lowerneck -11.1952 -5.06366 -5.83937
upperneck 16.8455 -8.61035 10.3997
head 7.73869 -3.8714 3.45902
rclavicle 3.93842e-015 7.55382e-015
rhumerus 3.00698 1.64209 -43.4197
rradius 113.187
rwrist 14.0006
rhand -27.5941 50.286
rfingers 7.12502
rthumb -0.993876 20.3086
lclavicle 3.93842e-015 7.55382e-015
lhumerus 11.4727 -5.04529 41.5367
lradius 112.427
lwrist -15.906
lhand -31.1265 13.5205
lfingers 7.12502
lthumb -4.40531 43.4547
rfemur -3.57268 11.43 12.4511
rtibia 17.9939
rfoot -10.114 -16.6624
rtoes 4.69594
lfemur -3.02285 -3.95647 -19.2701
ltibia 16.0296
lfoot -13.5116 7.60965
ltoes -13.3574
765
root 8.51871 18.7573 9.71719 -176.788 2.07677 177.976
lowerback 0.668568 0.680964 -2.64809
upperback 0.360528 0.921442 -1.12217
thorax -0.0281712 0.470889 0.328276
lowerneck -11.1503 -5.02267 -5.808
upperneck 16.7982 -8.59336 10.5383
head 7.71887 -3.85612 3.5022
rclavicle 1.31695e-015 -1.37161e-014
rhumerus 2.79473 1.80793 -43.2933
rradius 113.356
rwrist 13.3566
rhand -27.8941 50.2715
rfingers 7.12502
rthumb -1.28365 20.2957
lclavicle 1.31695e-015 -1.37161e-014
lhumerus 11.3676 -4.99378 41.4769
lradius 112.366
lwrist -16.091
lhand -31.913 13.4759
lfingers 7.12502
lthumb -5.16475 43.393
rfemur -3.66209 11.4965 12.7454
rtibia 17.8456
rfoot -10.1724 -16.8441
rtoes 5.68205
lfemur -3.14965 -4.25826 -18.94
ltibia 15.8219
lfoot -13.3937 7.70658
ltoes -13.1256
766
root 8.5224 18.7607 9.71495 -176.649 2.16848 177.896
lowerback 0.394092 0.694389 -2.85456
upperback 0.377096 0.949014 -1.07997
thorax 0.137989 0.482162 0.490659
lowerneck -11.1745 -4.96353 -5.86949
upperneck 16.7138 -8.48847 10.5883
head 7.691 -3.80315 3.54065
rclavicle 4.95719e-015 -1.61016e-014
rhumerus 2.71425 1.94082 -43.051
rradius 113.538
rwrist 12.765
rhand -28.3904 50.1314
rfingers 7.12502
rthumb -1.76301 20.1589
lclavicle 4.95719e-015 -1.61016e-014
lhumerus 11.2977 -4.7759 41.5444
lradius 112.382
lwrist -15.7881
lhand -32.5243 13.3439
lfingers 7.12502
lthumb -5.75491 43.2458
rfemur -3.7178 11.7773 12.6347
rtibia 17.6598
rfoot -10.2296 -16.9475
rtoes 5.91398
lfemur -3.22452 -4.3302 -19.0236
ltibia 15.6986
lfoot -13.477 7.96345
ltoes -14.1803
767
root 8.52619 18.7676 9.70733 -176.651 2.30773 177.846
lowerback 0.291426 0.74047 -2.96868
upperback 0.380622 1.0152 -1.08602
thorax 0.195414 0.514601 0.549556
lowerneck -11.2579 -4.94408 -5.82473
upperneck 16.8455 -8.47939 10.5481
head 7.74459 -3.79617 3.51941
rclavicle 3.516e-015 -2.34566e-014
rhumerus 2.59133 1.93559 -43.0432
rradius 113.7
rwrist 12.415
rhand -28.2965 50.1681
rfingers 7.12502
rthumb -1.67224 20.1949
lclavicle 3.516e-015 -2.34566e-014
lhumerus 11.2212 -4.67399 41.5084
lradius 112.397
lwrist -15.081
lhand -33.5137 13.1799
lfingers 7.12502
lthumb -6.71013 43.0536
rfemur -3.63 12.0365 12.6025
rtibia 17.4695
rfoot -10.124 -17.0666
rtoes 5.37455
lfemur -3.08415 -4.31871 -19.0768
ltibia 15.5218
lfoot -13.6777 8.16275
ltoes -14.9222
768
root 8.5283 18.7728 9.69835 -176.69 2.325 177.999
lowerback 0.352045 0.740254 -2.79929
upperback 0.310644 1.00862 -1.06358
thorax 0.0923153 0.512401 0.476329
lowerneck -11.2799 -4.89877 -5.81827
upperneck 17.0807 -8.46754 10.5591
head 7.82465 -3.79172 3.52325
rclavicle 1.0051e-014 7.35503e-015
rhumerus 2.40672 2.07673 -43.1363
rradius 113.806
rwrist 12.2833
rhand -28.3471 50.3935
rfingers 7.12502
rthumb -1.72111 20.4207
lclavicle 1.0051e-014 7.35503e-015
lhumerus 10.9886 -4.59468 41.4953
lradius 112.486
lwrist -14.2423
lhand -34.2583 13.0604
lfingers 7.12502
lthumb -7.42885 42.91
rfemur -3.47995 12.1625 12.8214
rtibia 17.3309
rfoot -10.0427 -17.2435
rtoes 4.83284
lfemur -2.81469 -4.34197 -18.9014
ltibia 15.1857
lfoot -13.63 8.11589
ltoes -13.9713
769
root 8.52869 18.7759 9.69138 -176.638 2.40173 178.084
lowerback 0.248309 0.739188 -2.70953
upperback 0.267342 1.00854 -1.04464
thorax 0.107235 0.51194 0.446684
lowerneck -11.1841 -4.84849 -5.89566
upperneck 17.1207 -8.4283 10.6713
head 7.82497 -3.77615 3.57994
rclavicle -1.76049e-014 1.78906e-014
rhumerus 2.29845 2.16252 -43.2093
rradius 113.92
rwrist 12.461
rhand -28.4879 50.3822
rfingers 7.12502
rthumb -1.85712 20.4106
lclavicle -1.76049e-014 1.78906e-014
lhumerus 10.7798 -4.37811 41.5235
lradius 112.612
lwrist -13.6709
lhand -34.2838 13.1155
lfingers 7.12502
lthumb -7.45353 42.9642
rfemur -3.47532 12.1677 12.9012
rtibia 17.2354
rfoot -10.0287 -17.213
rtoes 4.52884
lfemur -2.59573 -4.26739 -18.8139
ltibia 14.737
lfoot -13.3742 8.05088
ltoes -12.846
770
root 8.52803 18.7799 9.68609 -176.537 2.41327 177.978
lowerback 0.09032 0.739349 -2.78819
upperback 0.268863 1.01719 -1.10785
thorax 0.196978 0.516164 0.428322
lowerneck -11.1994 -4.87172 -5.87297
upperneck 17.0461 -8.46545 10.728
head 7.80855 -3.7879 3.59003
rclavicle -3.09359e-015 -1.74931e-014
rhumerus 2.22701 1.95563 -43.2778
rradius 114.076
rwrist 12.8023
rhand -28.1822 50.2083
rfingers 7.12502
rthumb -1.56192 20.2342
lclavicle -3.09359e-015 -1.74931e-014
lhumerus 10.779 -4.1254 41.5332
lradius 112.712
lwrist -13.5189
lhand -33.6939 13.5299
lfingers 7.12502
lthumb -6.88412 43.398
rfemur -3.48878 12.1857 12.7605
rtibia 17.0773
rfoot -9.9145 -17.216
rtoes 4.66412
lfemur -2.47477 -4.21791 -18.9276
ltibia 14.3367
lfoot -13.1645 8.06543
ltoes -12.7432
771
root 8.52842 18.7857 9.68073 -176.551 2.38653 177.783
lowerback 0.059187 0.740964 -3.0114
upperback 0.328113 1.02608 -1.15879
thorax 0.272112 0.520348 0.501943
lowerneck -11.4162 -4.89659 -5.8536
upperneck 17.0594 -8.4903 10.7432
head 7.85476 -3.786 3.58465
rclavicle 9.47954e-015 0
rhumerus 2.19984 1.65983 -43.2614
rradius 114.216
rwrist 13.22
rhand -27.5589 49.9154
rfingers 7.12502
rthumb -0.959936 19.9378
lclavicle 9.47954e-015 0
lhumerus 10.744 -3.81823 41.6376
lradius 112.913
lwrist -13.7736
lhand -32.7103 14.0017
lfingers 7.12502
lthumb -5.9345 43.8986
rfemur -3.32588 12.2028 12.5574
rtibia 16.8452
rfoot -9.86546 -17.2024
rtoes 5.29966
lfemur -2.27879 -4.2577 -19.142
ltibia 14.018
lfoot -12.969 8.15341
ltoes -13.1866
772
root 8.53062 18.7852 9.67786 -176.526 2.45765 177.877
lowerback 0.104096 0.75325 -2.89788
upperback 0.268071 1.03795 -1.16472
thorax 0.187086 0.527624 0.431197
lowerneck -11.5484 -4.83693 -5.80878
upperneck 17.2254 -8.43329 10.7254
head 7.92542 -3.75257 3.57575
rclavicle 6.07536e-015 8.74653e-015
rhumerus 2.03556 1.58101 -43.3972
rradius 114.396
rwrist 13.5522
rhand -26.9567 49.4221
rfingers 7.12502
rthumb -0.378248 19.4427
lclavicle 6.07536e-015 8.74653e-015
lhumerus 10.4783 -3.62934 41.6136
lradius 113.152
lwrist -14.1408
lhand -31.7315 14.2568
lfingers 7.12502
lthumb -4.98948 44.178
rfemur -3.22717 12.2065 12.6551
rtibia 16.6099
rfoot -9.91249 -17.093
rtoes 5.78318
lfemur -2.12913 -4.03046 -19.0363
ltibia 13.7121
lfoot -12.7842 8.17486
ltoes -14.2265
773
root 8.53353 18.7818 9.67736 -176.421 2.50652 178.163
lowerback 0.084374 0.765998 -2.56357
upperback 0.191732 1.05008 -1.14147
thorax 0.124935 0.533945 0.267718
lowerneck -11.6623 -4.79906 -5.70614
upperneck 17.3785 -8.40446 10.6513
head 7.98634 -3.7341 3.53544
rclavicle -1.78658e-014 1.70955e-014
rhumerus 1.83604 1.56238 -43.6043
rradius 114.639
rwrist 13.5511
rhand -26.3092 48.6972
rfingers 7.12502
rthumb 0.247079 18.7176
lclavicle -1.78658e-014 1.70955e-014
lhumerus 10.3508 -3.52826 41.4886
lradius 113.271
lwrist -14.4783
lhand -30.701 14.556
lfingers 7.12502
lthumb -3.99437 44.4983
rfemur -3.23111 12.3775 12.9676
rtibia 16.4182
rfoot -9.86425 -17.2142
rtoes 5.62064
lfemur -2.06927 -3.92301 -18.7179
ltibia 13.4127
lfoot -12.7157 8.26744
ltoes -15.1302
774
root 8.53468 18.7867 9.67451 -176.36 2.39474 178.223
lowerback -0.0352742 0.70972 -2.50912
upperback 0.142368 0.976319 -1.10453
thorax 0.143384 0.496528 0.276428
lowerneck -11.5256 -5.67721 -5.63369
upperneck 17.6039 -8.14883 10.4798
head 8.01551 -3.02794 3.58015
rclavicle -1.28465e-014 1.98785e-015
rhumerus 1.71174 1.6069 -43.6815
rradius 114.867
rwrist 13.4388
rhand -25.1371 48.0393
rfingers 7.12502
rthumb 1.3792 18.064
lclavicle -1.28465e-014 1.98785e-015
lhumerus 10.1821 -3.41643 41.4539
lradius 113.392
lwrist -15.0871
lhand -29.137 15.2066
lfingers 7.12502
lthumb -2.48405 45.1719
rfemur -3.13012 12.5225 13.0699
rtibia 16.1801
rfoot -9.72226 -17.455
rtoes 5.86608
lfemur -2.01697 -4.15001 -18.6474
ltibia 13.1841
lfoot -12.5343 8.37723
ltoes -15.3449
775
root 8.53003 18.7918 9.66685 -176.332 2.04842 178.037
lowerback -0.168223 0.541208 -2.62831
upperback -0.0393309 0.753521 -1.11886
thorax 0.0357015 0.387972 0.328504
lowerneck -10.8518 -5.63612 -5.88388
upperneck 17.5893 -8.05628 10.5911
head 7.8948 -3.00162 3.68433
rclavicle 2.65874e-015 -1.23246e-014
rhumerus 1.41013 1.89751 -43.7716
rradius 115.033
rwrist 13.4694
rhand -24.0577 48.0508
rfingers 7.12502
rthumb 2.42166 18.0848
lclavicle 2.65874e-015 -1.23246e-014
lhumerus 9.60564 -3.49875 41.4281
lradius 113.617
lwrist -15.75
lhand -27.3478 15.8326
lfingers 7.12502
lthumb -0.755973 45.811
rfemur -2.92965 12.3569 12.9047
rtibia 15.9331
rfoot -9.67788 -17.6168
rtoes 6.47478
lfemur -1.94158 -4.42395 -18.8454
ltibia 12.9393
lfoot -12.2467 8.35702
ltoes -15.6082
776
root 8.5272 18.7927 9.65884 -176.293 1.85989 177.896
lowerback -0.254107 0.476509 -2.70414
upperback -0.212641 0.669518 -1.18096
thorax -0.0916221 0.34996 0.307029
lowerneck -10.3541 -5.64275 -5.90656
upperneck 17.6197 -8.04684 10.5515
head 7.81248 -3.00726 3.68715
rclavicle 4.43538e-015 -2.26615e-014
rhumerus 0.998821 2.06843 -43.8877
rradius 115.138
rwrist 13.571
rhand -23.5846 48.4658
rfingers 7.12502
rthumb 2.87853 18.5055
lclavicle 4.43538e-015 -2.26615e-014
lhumerus 9.22942 -3.7663 41.3531
lradius 113.721
lwrist -16.0378
lhand -26.6233 15.8338
lfingers 7.12502
lthumb -0.056245 45.8135
rfemur -2.82197 12.2245 12.7602
rtibia 15.8023
rfoot -9.62795 -17.7184
rtoes 5.79947
lfemur -1.79596 -4.47929 -18.9877
ltibia 12.5752
lfoot -12.167 8.34261
ltoes -15.4688
